Coordinates
version=1
nRows=17
nColumns=40
inDegrees=yes

Units are S.I. units (second, meters, Newtons, ...)
Angles are in degrees.

endheader
time	pelvis_tilt	pelvis_list	pelvis_rotation	pelvis_tx	pelvis_ty	pelvis_tz	hip_flexion_r	hip_adduction_r	hip_rotation_r	knee_angle_r	knee_angle_r_beta	ankle_angle_r	subtalar_angle_r	mtp_angle_r	hip_flexion_l	hip_adduction_l	hip_rotation_l	knee_angle_l	knee_angle_l_beta	ankle_angle_l	subtalar_angle_l	mtp_angle_l	lumbar_extension	lumbar_bending	lumbar_rotation	arm_flex_r	arm_add_r	arm_rot_r	elbow_flex_r	pro_sup_r	wrist_flex_r	wrist_dev_r	arm_flex_l	arm_add_l	arm_rot_l	elbow_flex_l	pro_sup_l	wrist_flex_l	wrist_dev_l
      0.00000000	     -3.12036477	      2.81601286	      8.59444529	     -1.05525861	      0.96126818	     -1.46256559	     28.10398499	    -12.37057570	    -18.83240460	    -31.20594386	     -0.54464647	      1.78215888	     -8.03894521	     11.42266027	     -3.05830969	     -2.80301575	      9.84782757	     -9.17667505	     -0.16016319	      2.89368634	     -4.38311580	    -12.83454901	     -4.58889581	     -3.73330130	     -4.90762975	     -0.77830123	     -7.37183170	    -17.20517000	     18.27925522	     89.95437384	      0.00000000	      0.00000000	     17.68587744	     20.13160506	      4.97299339	     31.89574491	     89.95437384	      0.00000000	      0.00000000
      0.01000000	     -3.35975212	      2.79060521	      8.42204463	     -1.04810445	      0.96006463	     -1.46292493	     28.57457191	    -12.05885747	    -19.29803925	    -28.92284331	     -0.50479884	      1.73889037	     -7.11649098	     11.46743674	     -3.37916828	     -2.81495486	      9.77166584	     -9.03092677	     -0.15761941	      3.10403206	     -4.36915069	    -12.83689555	     -4.41102487	     -3.74846493	     -4.97376890	     -0.93812894	     -7.33413953	    -17.29577017	     18.28080987	     89.95437384	      0.00000000	      0.00000000	     18.09475060	     20.42921169	      4.80112811	     32.28935865	     89.95437384	      0.00000000	      0.00000000
      0.02000000	     -3.13361546	      2.56801645	      8.36385137	     -1.04049867	      0.95949767	     -1.46341176	     28.31786192	    -11.60213375	    -20.50574357	    -26.44152092	     -0.46149160	      1.64144030	     -5.83780275	     11.49508299	     -4.18435326	     -2.49348837	     10.04286556	     -8.89972895	     -0.15532957	      3.39261210	     -4.57394528	    -12.98688222	     -4.72308877	     -3.44235947	     -5.10864857	     -1.03406061	     -7.29761871	    -17.71458574	     18.22111026	     89.95437384	      0.00000000	      0.00000000	     18.47779196	     20.75286594	      4.40674758	     32.75979029	     89.95437384	      0.00000000	      0.00000000
      0.03000000	     -3.49936383	      2.65335845	      8.16782274	     -1.03323619	      0.95785382	     -1.46364707	     28.93043204	    -11.41830735	    -20.94699300	    -24.34774835	     -0.42494837	      1.62849559	     -4.92910910	     11.47128140	     -4.35650736	     -2.62813391	     10.19798553	     -8.81952859	     -0.15392981	      3.57002469	     -4.66206590	    -13.01070462	     -4.41122009	     -3.58955252	     -5.14752150	     -1.21337750	     -7.24591706	    -17.90060758	     18.24632908	     89.95437384	      0.00000000	      0.00000000	     18.69940191	     21.05371250	      4.26874442	     33.24130731	     89.95437384	      0.00000000	      0.00000000
      0.04000000	     -3.27884334	      2.35694774	      8.15553380	     -1.02545208	      0.95714313	     -1.46398618	     28.63591127	    -10.90601202	    -22.20228940	    -22.06261300	     -0.38506524	      1.60089552	     -3.34627454	     11.28161783	     -5.11323861	     -2.18347100	     10.49893152	     -8.78270736	     -0.15328716	      3.80402544	     -5.07100587	    -13.26607730	     -4.70836284	     -3.20060881	     -5.27963932	     -1.25449080	     -7.25404641	    -18.24876257	     18.10968762	     89.95437384	      0.00000000	      0.00000000	     19.01850410	     21.18683393	      4.17397084	     33.59815215	     89.95437384	      0.00000000	      0.00000000
      0.05000000	     -3.35788708	      2.25504796	      8.04762326	     -1.01782067	      0.95584341	     -1.46415421	     28.77060503	    -10.59676886	    -23.08456368	    -20.07474943	     -0.35037047	      1.68711214	     -1.67618242	     10.82690934	     -5.55353831	     -1.99268592	     10.90837948	     -8.79550291	     -0.15351049	      4.00269287	     -5.68242422	    -13.53602656	     -4.69826735	     -3.07301158	     -5.34595721	     -1.35546475	     -7.21696388	    -18.66607010	     18.04192483	     89.95437384	      0.00000000	      0.00000000	     19.20545819	     21.34791593	      4.15903264	     33.97385698	     89.95437384	      0.00000000	      0.00000000
      0.06000000	     -3.71360730	      2.35677212	      7.94251149	     -1.01052911	      0.95407150	     -1.46425211	     29.29851788	    -10.46117539	    -23.42439452	    -18.30530016	     -0.31948776	      1.69187671	     -0.68093632	     10.70767607	     -5.67614114	     -2.10542374	     10.96881815	     -8.83822346	     -0.15425610	      4.14746182	     -5.80524386	    -13.60632563	     -4.44059688	     -3.21744331	     -5.46497153	     -1.47436016	     -7.18258320	    -18.73990850	     17.99065995	     89.95437384	      0.00000000	      0.00000000	     19.26940504	     21.53666620	      4.21469342	     34.39588624	     89.95437384	      0.00000000	      0.00000000
      0.07000000	     -3.99968043	      2.48982292	      7.81572683	     -1.00295787	      0.95229832	     -1.46441926	     29.85982137	    -10.43180048	    -24.05687332	    -16.98909862	     -0.29651571	      1.84939375	     -0.19208841	     10.64955975	     -5.94174621	     -2.26000637	     11.13423479	     -8.79039303	     -0.15342130	      4.42514219	     -5.85745158	    -13.68785253	     -4.22798791	     -3.36734775	     -5.45273542	     -1.56922325	     -7.19966928	    -18.78347726	     17.84989540	     89.95437384	      0.00000000	      0.00000000	     19.40568362	     21.61844659	      4.23225351	     34.62146424	     89.95437384	      0.00000000	      0.00000000
      0.08000000	     -3.77519472	      2.07283078	      7.91094861	     -0.99470529	      0.95137131	     -1.46435469	     29.42487220	     -9.92249376	    -25.71744125	    -15.20101745	     -0.26530780	      1.49943294	      3.11619414	      8.56130528	     -6.51336583	     -1.51962614	     11.72236782	     -9.17128345	     -0.16006909	      4.38582732	     -7.15223642	    -14.60922383	     -4.51399677	     -2.84320307	     -5.76542774	     -1.59443121	     -7.15471605	    -19.30622590	     17.80093823	     89.95437384	      0.00000000	      0.00000000	     19.29624972	     21.62519083	      4.63007133	     35.07341684	     89.95437384	      0.00000000	      0.00000000
      0.09000000	     -4.07089844	      2.15487320	      7.90497321	     -0.98697732	      0.94955660	     -1.46435728	     29.82922458	     -9.81984305	    -25.96393044	    -13.97478337	     -0.24390598	      1.38344077	      3.78491082	      8.43841003	     -6.69983520	     -1.56903881	     11.69795165	     -9.24693640	     -0.16138949	      4.59425908	     -7.21475696	    -14.67732574	     -4.29943856	     -2.94516645	     -5.92644354	     -1.65819191	     -7.15079009	    -19.40235855	     17.65746590	     89.95437384	      0.00000000	      0.00000000	     19.21522793	     21.67744246	      4.76872288	     35.32120647	     89.95437384	      0.00000000	      0.00000000
      0.10000000	     -4.27740148	      2.31279889	      7.83206002	     -0.97909965	      0.94779545	     -1.46389687	     30.35247258	     -9.82977911	    -26.24945286	    -13.50956819	     -0.23578645	      1.49999403	      3.79924340	      8.34863734	     -6.98301226	     -1.65629543	     11.75946244	     -9.37471520	     -0.16361965	      4.72432660	     -7.16339943	    -14.62595810	     -4.20511729	     -3.16090638	     -5.95466572	     -1.77473927	     -7.08356877	    -19.38538971	     17.63249213	     89.95437384	      0.00000000	      0.00000000	     19.22058305	     21.74222156	      4.85406377	     35.44815216	     89.95437384	      0.00000000	      0.00000000
      0.11000000	     -4.51530783	      2.41465581	      7.86477217	     -0.97073863	      0.94607382	     -1.46416631	     30.64016543	     -9.84472685	    -26.41504191	    -12.83300909	     -0.22397826	      1.49430352	      4.09100800	      8.27737666	     -7.26847923	     -1.72313143	     11.76239215	     -9.44683198	     -0.16487832	      4.96107247	     -7.19146084	    -14.64245361	     -3.97655779	     -3.21844925	     -6.12641949	     -1.92944598	     -7.13804528	    -19.50982852	     17.51086098	     89.95437384	      0.00000000	      0.00000000	     18.95289417	     21.66893359	      5.01470879	     35.57465328	     89.95437384	      0.00000000	      0.00000000
      0.12000000	     -4.24232967	      1.91241067	      8.12305163	     -0.96173631	      0.94516551	     -1.46388438	     30.09789152	     -9.30753376	    -27.28774264	    -12.06767261	     -0.21062062	      0.78709088	      5.93939007	      5.40969986	     -7.81249577	     -0.76488023	     12.25860342	    -10.02013542	     -0.17488435	      4.75874762	     -8.80085425	    -15.82205627	     -4.27982342	     -2.58734394	     -6.58013158	     -1.79974008	     -7.10186767	    -20.25636996	     17.19175997	     89.95437384	      0.00000000	      0.00000000	     18.49933503	     21.41279627	      6.09544271	     36.00370412	     89.95437384	      0.00000000	      0.00000000
      0.13000000	     -4.38173227	      2.00324168	      8.16111305	     -0.95335620	      0.94355611	     -1.46343667	     30.45533995	     -9.34925138	    -26.93232955	    -12.38383391	     -0.21613868	      0.71137064	      5.73128214	      5.30022691	     -7.99403185	     -0.70946934	     12.09903688	    -10.51858390	     -0.18358392	      4.67911187	     -8.55103158	    -15.54403278	     -4.20752546	     -2.68886172	     -6.66468801	     -2.08567837	     -7.07900219	    -20.20503084	     17.42235936	     89.95437384	      0.00000000	      0.00000000	     18.25131164	     21.34836150	      6.12142347	     36.11181487	     89.95437384	      0.00000000	      0.00000000
      0.14000000	     -4.38015126	      1.95431374	      8.31630463	     -0.94412362	      0.94221902	     -1.46324694	     30.53053377	     -9.34917208	    -27.01366967	    -12.89196704	     -0.22500727	      0.73217738	      5.16313255	      5.08867744	     -8.57658496	     -0.49828658	     11.76452474	    -10.53890594	     -0.18393861	      5.02789859	     -8.71921513	    -15.58133648	     -4.19070033	     -2.57218817	     -7.00460461	     -2.06825562	     -7.09576552	    -20.45376087	     17.08076525	     89.95437384	      0.00000000	      0.00000000	     17.77625454	     21.12812532	      6.74018724	     36.12028020	     89.95437384	      0.00000000	      0.00000000
      0.15000000	     -4.52606874	      2.03543262	      8.36571009	     -0.93501717	      0.94068849	     -1.46267854	     30.70526795	     -9.37841671	    -26.53040249	    -13.40595810	     -0.23397811	      0.60857915	      4.91394450	      4.97616322	     -8.75449228	     -0.39715701	     11.55878481	    -11.12640420	     -0.19419239	      4.89556182	     -8.44187372	    -15.26572229	     -4.05260219	     -2.65590994	     -7.07474995	     -2.42243145	     -7.08029339	    -20.41593063	     17.32105497	     89.95437384	      0.00000000	      0.00000000	     17.31950066	     21.00227307	      6.76992056	     36.18960373	     89.95437384	      0.00000000	      0.00000000
      0.16000000	     -4.26666639	      1.87234038	      8.56125134	     -0.92517300	      0.93984568	     -1.46234358	     30.51073570	     -9.27304797	    -26.60713555	    -14.55937385	     -0.25410901	      0.86484477	      3.57686293	      4.71703410	     -9.61445815	      0.02597959	     11.25682085	    -11.18045870	     -0.19513582	      5.07704786	     -8.69523911	    -15.27246767	     -4.28052671	     -2.36461896	     -7.45343495	     -2.33566118	     -7.09471084	    -20.86039383	     16.91903370	     89.95437384	      0.00000000	      0.00000000	     16.68836254	     20.64420137	      7.65778540	     36.14226774	     89.95437384	      0.00000000	      0.00000000
